<svg width="738" height="120" viewBox="0 0 738 120" fill="none" xmlns="http://www.w3.org/2000/svg">
<g clip-path="url(#clip0_112_108)">
<path d="M134.379 84.2497C139.261 84.2497 142.231 82.5532 142.231 78.8461C142.231 75.9851 140.322 74.607 135.759 73.1241C131.196 71.6412 121.541 69.7312 115.598 65.8105C109.655 61.8897 106.581 56.3773 106.581 48.3262C106.581 32.6432 117.934 23.3188 135.335 23.3188C143.187 23.3188 153.16 25.3336 160.374 28.936V48.6446C151.143 43.5593 141.274 41.4397 136.078 41.4397C131.41 41.4397 128.755 43.1362 128.755 46.4203C128.755 49.2812 130.772 50.6593 135.227 52.0375C139.685 53.4156 149.231 55.4263 155.278 59.2423C161.326 63.0583 164.405 69.2033 164.405 77.0448C164.405 93.151 152.523 102.371 134.589 102.371C126.419 102.371 115.913 100.465 108.062 96.5438V75.8803C117.821 81.9206 129.07 84.2537 134.375 84.2537L134.379 84.2497Z" fill="white"/>
<path d="M172.897 24.4795H194.757V58.3922L194.971 58.497L217.463 24.4795H242.93L217.358 60.7213L244.414 101.202H218.206L194.971 64.2189L194.757 64.3237V101.202H172.897V24.4795Z" fill="white"/>
<path d="M268.287 66.9751L238.366 24.4795H264.042L271.046 35.2867C273.911 39.7394 276.775 44.188 279.43 48.4271H279.644C282.404 43.9745 284.949 39.9489 287.814 35.5003L294.923 24.4795H319.961L290.146 66.548V101.202H268.291V66.9751H268.287Z" fill="white"/>
<path d="M324.307 24.4795H346.166V82.7629H378.209V101.202H324.307V24.4795Z" fill="white"/>
<path d="M385.741 24.4795H435.822V42.9187H407.387V53.726H431.473V71.1054H407.387V82.7629H437.097V101.202H385.745V24.4795H385.741Z" fill="white"/>
<path d="M471.577 24.4795H494.179L524.737 101.202H500.969L495.559 85.5191H469.245L463.621 101.202H441.02L471.577 24.4795ZM489.935 69.413L487.389 62.0994C485.904 57.7555 484.101 52.4567 482.721 47.7945H482.507C481.022 52.5614 479.219 57.8603 477.625 62.3129L475.079 69.413H489.935Z" fill="white"/>
<path d="M561.765 58.9202H593.913V96.5401C586.804 100.038 577.044 102.367 567.494 102.367C541.181 102.367 523.885 85.7288 523.885 63.264C523.885 40.7993 541.923 23.311 567.067 23.311C576.403 23.311 584.892 25.6441 591.363 29.033V49.8053C584.468 45.671 575.979 42.6005 568.019 42.6005C554.12 42.6005 545.736 51.5018 545.736 63.1593C545.736 74.8167 553.906 83.8228 567.591 83.8228C569.5 83.8228 571.731 83.6092 573.215 83.1861V75.1311H561.757V58.9161L561.765 58.9202Z" fill="white"/>
<path d="M625.956 24.4795V66.1249C625.956 71.6333 627.122 75.6628 629.563 78.4191C632.004 81.0665 635.506 82.7629 640.065 82.7629C644.624 82.7629 648.13 81.0665 650.571 78.4191C653.012 75.7676 654.178 71.7421 654.178 66.1249V24.4795H675.186V68.0349C675.186 77.1497 672.745 85.8375 666.697 92.1961C660.649 98.5547 650.781 102.371 639.641 102.371C628.502 102.371 618.633 98.5547 612.585 92.1961C606.538 85.8375 604.097 76.9362 604.097 68.0349V24.4795H625.952H625.956Z" fill="white"/>
<path d="M686.648 24.4795H736.73V42.9187H708.294V53.726H732.38V71.1054H708.294V82.7629H738.004V101.202H686.652V24.4795H686.648Z" fill="white"/>
<path d="M69.7905 88.0093H0.416016V119.996H69.7905V88.0093Z" fill="#6800FF"/>
<path d="M70.1612 12.02L0 82.0979V120H70.1572L70.1612 12.02Z" fill="#00CCFF"/>
<path d="M12.043 12.0202C-4.00652 28.0498 -4.00652 54.0363 12.043 70.0659L70.161 12.0202C54.1115 -4.00934 28.0925 -4.00934 12.043 12.0202Z" fill="white"/>
<path d="M70.1374 102.069C86.187 86.0391 86.187 60.0525 70.1374 44.0229L12.0234 102.069C28.073 118.098 54.0919 118.098 70.1415 102.069H70.1374Z" fill="white"/>
</g>
<defs>
<clipPath id="clip0_112_108">
<rect width="738" height="120" fill="white"/>
</clipPath>
</defs>
</svg>
